<svg xmlns="http://www.w3.org/2000/svg" width="1200" height="820" viewBox="0 0 1200 820" role="img" aria-labelledby="title desc">
  <title id="title">闪电加速器官方网站发布首页</title>
  <desc id="desc">闪电、通道和发布面板组成的官网入口视觉图</desc>
  <defs>
    <linearGradient id="bg" x1="0" x2="1" y1="0" y2="1">
      <stop offset="0" stop-color="#123C69"/>
      <stop offset=".55" stop-color="#1D6F7D"/>
      <stop offset="1" stop-color="#F4B942"/>
    </linearGradient>
    <linearGradient id="card" x1="0" x2="1">
      <stop offset="0" stop-color="#FFFFFF" stop-opacity=".94"/>
      <stop offset="1" stop-color="#E7F5F2" stop-opacity=".9"/>
    </linearGradient>
    <filter id="shadow" x="-20%" y="-20%" width="140%" height="140%">
      <feDropShadow dx="0" dy="24" stdDeviation="24" flood-color="#0B1D30" flood-opacity=".24"/>
    </filter>
  </defs>
  <rect width="1200" height="820" rx="54" fill="url(#bg)"/>
  <path d="M120 610 C260 500 350 650 500 535 C650 420 770 480 910 360 C1005 278 1080 280 1130 310" fill="none" stroke="#D7FFF7" stroke-width="16" stroke-linecap="round" opacity=".55"/>
  <path d="M138 214 H626 C662 214 692 244 692 280 V560 C692 596 662 626 626 626 H138 C102 626 72 596 72 560 V280 C72 244 102 214 138 214Z" fill="url(#card)" filter="url(#shadow)"/>
  <rect x="124" y="278" width="266" height="26" rx="13" fill="#123C69"/>
  <rect x="124" y="337" width="440" height="18" rx="9" fill="#6AA6A0"/>
  <rect x="124" y="382" width="390" height="18" rx="9" fill="#9DC7C1"/>
  <rect x="124" y="463" width="190" height="58" rx="18" fill="#F4B942"/>
  <rect x="342" y="463" width="222" height="58" rx="18" fill="#123C69"/>
  <path d="M822 142 L650 452 H800 L722 684 L1058 310 H874 L982 142Z" fill="#FFE47A" stroke="#FFFFFF" stroke-width="18" stroke-linejoin="round" filter="url(#shadow)"/>
  <circle cx="930" cy="604" r="74" fill="#FFFFFF" opacity=".92"/>
  <path d="M896 608 L924 636 L972 572" fill="none" stroke="#1D6F7D" stroke-width="18" stroke-linecap="round" stroke-linejoin="round"/>
  <g opacity=".72" stroke="#FFFFFF" stroke-width="8" stroke-linecap="round">
    <path d="M816 88 H910"/>
    <path d="M1004 706 H1104"/>
    <path d="M168 144 H260"/>
  </g>
</svg>
